HIERARCHY
ROOT Hips
{
	OFFSET 54.772701 8.375010 57.437698
	CHANNELS 6 Xposition Yposition Zposition Xrotation Yrotation Zrotation
	JOINT spine
	{
		OFFSET 0.000000 -0.393701 6.846367
		CHANNELS 3 Xrotation Yrotation Zrotation
		JOINT spine1
		{
			OFFSET 0.000000 -0.000001 9.496208
			CHANNELS 3 Xrotation Yrotation Zrotation
			JOINT spine2
			{
				OFFSET 0.000000 -0.000001 9.099091
				CHANNELS 3 Xrotation Yrotation Zrotation
				JOINT Neck
				{
					OFFSET 0.000000 -1.113784 23.361198
					CHANNELS 3 Xrotation Yrotation Zrotation
					JOINT Head
					{
						OFFSET 0.000000 -0.000001 7.058022
						CHANNELS 3 Xrotation Yrotation Zrotation
						End Site
						{
							OFFSET 0.000000 5.634188 17.084396
						}
					}
				}
				JOINT RightShoulder
				{
					OFFSET -3.831360 0.533489 9.826309
					CHANNELS 3 Xrotation Yrotation Zrotation
					JOINT RightArm
					{
						OFFSET 0.000000 -0.000002 12.888100
						CHANNELS 3 Xrotation Yrotation Zrotation
						JOINT RightArmRoll
						{
							OFFSET 0.000000 -0.000001 6.506172
							CHANNELS 3 Xrotation Yrotation Zrotation
							JOINT RightForeArm
							{
								OFFSET 0.000000 -0.000003 18.950104
								CHANNELS 3 Xrotation Yrotation Zrotation
								JOINT RightForeArmRoll
								{
									OFFSET 0.000000 -0.000002 7.300934
									CHANNELS 3 Xrotation Yrotation Zrotation
									JOINT RightHand
									{
										OFFSET 0.000000 -0.000002 14.651398
										CHANNELS 3 Xrotation Yrotation Zrotation
										End Site
										{
											OFFSET 0.000000 0.000000 0.100006
										}
									}
								}
							}
						}
					}
				}
				JOINT LeftShoulder
				{
					OFFSET 3.831360 0.533489 9.826309
					CHANNELS 3 Xrotation Yrotation Zrotation
					JOINT LeftArm
					{
						OFFSET 0.000000 -0.000002 12.888100
						CHANNELS 3 Xrotation Yrotation Zrotation
						JOINT LeftArmRoll
						{
							OFFSET 0.000000 -0.000001 6.506172
							CHANNELS 3 Xrotation Yrotation Zrotation
							JOINT LeftForeArm
							{
								OFFSET 0.000000 -0.000003 18.950104
								CHANNELS 3 Xrotation Yrotation Zrotation
								JOINT LeftForeArmRoll
								{
									OFFSET 0.000000 -0.000002 7.300934
									CHANNELS 3 Xrotation Yrotation Zrotation
									JOINT LeftHand
									{
										OFFSET 0.000000 -0.000002 14.651398
										CHANNELS 3 Xrotation Yrotation Zrotation
										End Site
										{
											OFFSET 0.000000 0.000000 0.100006
										}
									}
								}
							}
						}
					}
				}
			}
		}
	}
	JOINT RightUpLeg
	{
		OFFSET -6.068371 0.933477 -1.112782
		CHANNELS 3 Xrotation Yrotation Zrotation
		JOINT RightUpLegRoll
		{
			OFFSET 0.000000 -0.000003 17.179600
			CHANNELS 3 Xrotation Yrotation Zrotation
			JOINT RightLeg
			{
				OFFSET 0.000000 0.000004 -21.274300
				CHANNELS 3 Xrotation Yrotation Zrotation
				JOINT RightLegRoll
				{
					OFFSET 0.000000 -0.000004 21.343903
					CHANNELS 3 Xrotation Yrotation Zrotation
					JOINT RightFoot
					{
						OFFSET 0.000000 -0.000003 17.765198
						CHANNELS 3 Xrotation Yrotation Zrotation
						JOINT RightToeBase
						{
							OFFSET 0.000000 -0.000002 14.850800
							CHANNELS 3 Xrotation Yrotation Zrotation
							End Site
							{
								OFFSET 0.006294 0.829003 7.192139
							}
						}
					}
				}
			}
		}
	}
	JOINT LeftUpLeg
	{
		OFFSET 6.068371 0.933477 -1.112782
		CHANNELS 3 Xrotation Yrotation Zrotation
		JOINT LeftUpLegRoll
		{
			OFFSET 0.000000 -0.000003 17.179699
			CHANNELS 3 Xrotation Yrotation Zrotation
			JOINT LeftLeg
			{
				OFFSET 0.000000 -0.000003 21.274200
				CHANNELS 3 Xrotation Yrotation Zrotation
				JOINT LeftLegRoll
				{
					OFFSET 0.000000 -0.000004 21.541199
					CHANNELS 3 Xrotation Yrotation Zrotation
					JOINT LeftFoot
					{
						OFFSET 0.000000 -0.000003 17.567894
						CHANNELS 3 Xrotation Yrotation Zrotation
						JOINT LeftToeBase
						{
							OFFSET 0.000000 -0.000002 14.850800
							CHANNELS 3 Xrotation Yrotation Zrotation
							End Site
							{
								OFFSET -0.028210 0.829002 7.192139
							}
						}
					}
				}
			}
		}
	}
}
MOTION
Frames: 8
Frame Time: 0.041667
54.819805 1.976109 62.912201 26.981945 1.815972 -1.085644 1.987707 -0.445117 0.676174 7.985609 -0.853832 1.370245 9.630586 -0.837360 1.380383 39.068518 11.523522 -3.640335 0.939500 -12.938219 -0.623920 -3.153490 -33.426468 -0.537239 -32.415016 -132.515505 -77.516630 0.000001 -0.000008 -0.000002 63.781502 -10.804599 6.070675 0.000004 -0.000007 -2.999988 -5.000256 -7.998712 0.000162 -7.957794 39.412196 7.757280 -53.476546 148.172812 95.845135 0.000001 0.000004 -0.000000 27.156252 40.770202 -14.878594 -0.000001 0.000006 2.999987 -5.000233 7.998821 -0.000155 -100.641676 -178.822426 -0.137171 -179.999991 0.000005 -0.643002 112.586823 -1.078479 -3.398630 0.000003 0.000001 1.455950 67.462134 7.199062 1.465071 25.456955 -7.355614 0.000001 -101.518707 164.941446 -2.027284 -0.000004 -0.000005 -0.474514 -72.226471 3.276953 5.702693 0.000001 0.000001 -1.418330 68.744686 -7.137236 -1.514736 25.456959 7.355618 0.000000 
54.810497 2.031949 62.827900 26.830139 1.821743 -1.104122 1.985550 -0.444892 0.675118 7.981561 -0.852467 1.368012 9.626557 -0.836022 1.378136 39.035931 11.599494 -3.622097 0.956590 -13.013250 -0.587935 -3.102546 -33.465823 -0.473122 -32.490315 -132.483772 -77.580622 -0.000001 -0.000007 -0.000002 63.699867 -10.848091 6.099894 0.000004 -0.000006 -2.999990 -5.000256 -7.998712 0.000166 -7.978178 39.458211 7.788729 -53.491624 148.146052 95.722492 0.000001 0.000004 0.000000 27.161106 40.667452 -14.819895 0.000001 0.000002 2.999991 -5.000229 7.998823 -0.000156 -100.596051 -178.818369 -0.104484 -179.999991 0.000005 -0.648002 112.500244 -1.071108 -3.398936 0.000003 0.000001 1.458930 67.440530 7.200011 1.465076 25.456953 -7.355614 0.000001 -101.511467 164.929220 -2.020307 -0.000003 -0.000004 -0.476729 -72.339087 3.223230 5.679149 0.000000 0.000001 -1.424750 68.730261 -7.137767 -1.515369 25.456962 7.355614 0.000001 
54.802803 2.073659 62.759804 26.677339 1.827393 -1.123110 1.983329 -0.444671 0.674078 7.977412 -0.851120 1.365830 9.622388 -0.834703 1.375929 39.003744 11.676919 -3.603812 0.974158 -13.088871 -0.551556 -3.050835 -33.505278 -0.407981 -32.565987 -132.452217 -77.643944 0.000001 -0.000009 -0.000001 63.616928 -10.891870 6.129140 0.000004 -0.000005 -2.999987 -5.000253 -7.998712 0.000160 -7.998588 39.504814 7.820257 -53.507132 148.118649 95.600170 0.000001 0.000004 -0.000001 27.165717 40.564623 -14.760942 0.000001 0.000009 2.999990 -5.000228 7.998820 -0.000158 -100.549441 -178.814544 -0.072907 -179.999991 0.000005 -0.652005 112.412893 -1.063345 -3.398317 0.000003 0.000001 1.461920 67.418591 7.200922 1.465192 25.456955 -7.355613 0.000001 -101.503366 164.917909 -2.011817 -0.000003 -0.000004 -0.478917 -72.452454 3.168794 5.654960 0.000000 0.000001 -1.431191 68.715938 -7.138307 -1.515996 25.456962 7.355617 -0.000001 
54.799301 2.127358 62.674595 26.523530 1.832874 -1.142116 1.981100 -0.444470 0.673069 7.973231 -0.849844 1.363738 9.618210 -0.833450 1.373815 38.972223 11.754236 -3.585904 0.991253 -13.163593 -0.515675 -2.999062 -33.545129 -0.342847 -32.642635 -132.419965 -77.708018 0.000001 -0.000008 0.000000 63.533388 -10.935509 6.158091 0.000002 -0.000006 -2.999989 -5.000253 -7.998712 0.000162 -8.018688 39.552041 7.851432 -53.522551 148.092066 95.477234 0.000000 0.000004 0.000001 27.170371 40.461716 -14.701938 -0.000001 0.000010 2.999987 -5.000227 7.998825 -0.000153 -100.502272 -178.810405 -0.040021 -179.999991 0.000005 -0.655994 112.324763 -1.055193 -3.397784 0.000003 0.000001 1.464929 67.396659 7.201861 1.465215 25.456957 -7.355614 0.000000 -101.494391 164.907691 -2.003471 -0.000002 -0.000003 -0.481082 -72.566279 3.113794 5.630072 0.000001 0.000001 -1.437650 68.701717 -7.138807 -1.516609 25.456957 7.355614 -0.000001 
54.800900 2.170220 62.603104 26.368509 1.838163 -1.160658 1.978897 -0.444303 0.672106 7.969127 -0.848685 1.361764 9.614101 -0.832315 1.371831 38.941712 11.829865 -3.568826 1.006907 -13.236124 -0.481188 -2.947973 -33.585416 -0.278741 -32.719379 -132.387794 -77.772010 -0.000001 -0.000007 -0.000000 63.449684 -10.978529 6.186506 0.000004 -0.000006 -2.999990 -5.000260 -7.998711 0.000162 -8.038193 39.600091 7.881899 -53.538650 148.065906 95.355137 0.000001 0.000004 0.000001 27.175171 40.358717 -14.642932 -0.000000 0.000006 2.999986 -5.000228 7.998824 -0.000155 -100.454727 -178.805514 -0.008391 -179.999991 0.000005 -0.659996 112.235724 -1.047029 -3.396238 0.000003 0.000001 1.467969 67.374830 7.202758 1.465423 25.456957 -7.355614 0.000001 -101.484173 164.899235 -1.994076 -0.000003 -0.000003 -0.483230 -72.680022 3.058523 5.604781 0.000001 0.000001 -1.444100 68.687592 -7.139310 -1.517215 25.456959 7.355615 -0.000001 
54.801804 2.219199 62.527802 26.212292 1.843197 -1.178244 1.976779 -0.444185 0.671206 7.965195 -0.847694 1.359966 9.610166 -0.831347 1.370019 38.912360 11.902267 -3.552971 1.020159 -13.304765 -0.449004 -2.898256 -33.626568 -0.216675 -32.796974 -132.354914 -77.837348 -0.000001 -0.000007 0.000003 63.366663 -11.020508 6.214459 0.000001 -0.000006 -2.999990 -5.000253 -7.998712 0.000162 -8.056783 39.649214 7.911248 -53.555445 148.041044 95.233949 0.000001 0.000004 0.000003 27.180198 40.255711 -14.583968 0.000000 0.000005 2.999991 -5.000227 7.998828 -0.000154 -100.407216 -178.799353 0.022556 -179.999991 0.000005 -0.663999 112.145764 -1.039231 -3.396622 0.000004 0.000001 1.471040 67.353622 7.203631 1.465487 25.456955 -7.355614 0.000001 -101.472589 164.892938 -1.985185 -0.000003 -0.000004 -0.485365 -72.793492 3.003091 5.578980 0.000000 0.000001 -1.450551 68.673679 -7.139783 -1.517803 25.456959 7.355614 0.000000 
54.785004 2.268889 62.442303 26.054766 1.847921 -1.194390 1.974784 -0.444130 0.670386 7.961535 -0.846923 1.358363 9.606503 -0.830594 1.368416 38.884410 11.969868 -3.538772 1.030055 -13.368115 -0.420033 -2.850655 -33.668653 -0.157682 -32.875698 -132.320394 -77.905028 -0.000000 -0.000009 -0.000000 63.284715 -11.061044 6.241402 0.000005 -0.000007 -2.999991 -5.000252 -7.998712 0.000161 -8.074170 39.699508 7.939085 -53.573378 148.017767 95.114475 0.000002 0.000004 0.000001 27.185664 40.152633 -14.525200 0.000001 0.000007 2.999990 -5.000228 7.998823 -0.000155 -100.359692 -178.791471 0.053368 -179.999991 0.000005 -0.668998 112.054827 -1.031036 -3.395074 0.000003 0.000001 1.474160 67.333159 7.204523 1.465407 25.456955 -7.355614 0.000001 -101.459441 164.889263 -1.975471 -0.000003 -0.000003 -0.487490 -72.906232 2.947778 5.552973 0.000000 0.000001 -1.456960 68.659978 -7.140261 -1.518280 25.456957 7.355613 0.000002 
54.786804 2.315168 62.368500 25.895832 1.852290 -1.208613 1.972976 -0.444154 0.669659 7.958230 -0.846418 1.357012 9.603204 -0.830105 1.367064 38.858196 12.031073 -3.526678 1.035619 -13.424782 -0.395185 -2.805875 -33.712058 -0.102789 -32.955034 -132.285068 -77.974676 0.000001 -0.000009 -0.000000 63.204481 -11.099564 6.267141 -0.000000 -0.000005 -2.999989 -5.000254 -7.998712 0.000163 -8.090048 39.751308 7.965042 -53.592745 147.996279 94.997379 0.000001 0.000004 0.000003 27.191589 40.049490 -14.466595 0.000002 0.000003 2.999992 -5.000227 7.998822 -0.000156 -100.312700 -178.781349 0.082630 -179.999991 0.000005 -0.673001 111.962776 -1.022825 -3.394521 0.000003 0.000001 1.477320 67.313837 7.205359 1.465240 25.456955 -7.355613 0.000001 -101.444633 164.888539 -1.965679 -0.000003 -0.000004 -0.489611 -73.017850 2.892726 5.526714 0.000001 0.000001 -1.463339 68.646577 -7.140684 -1.518624 25.456959 7.355614 0.000000 
